<svg id="Layer_1" data-name="Layer 1" xmlns="http://www.w3.org/2000/svg" xmlns:xlink="http://www.w3.org/1999/xlink" viewBox="0 0 433 591"><defs><mask id="mask" x="-2" y="0" width="575.61" height="591" maskUnits="userSpaceOnUse"><g id="mask0"><path d="M362.28,461.54H198.4c-4.32,0-8.63,4.31-8.63,8.63s4.31,8.62,8.63,8.62H362.28c4.31,0,8.63-4.31,8.63-8.62S366.59,461.54,362.28,461.54Z" style="fill:#ff4338;fill-opacity:0.05000000074505806"/><path d="M362.28,422.73H198.4c-4.32,0-8.63,4.31-8.63,8.62s4.31,8.63,8.63,8.63H362.28c4.31,0,8.63-4.31,8.63-8.63S366.59,422.73,362.28,422.73Z" style="fill:#ff4338;fill-opacity:0.05000000074505806"/><path d="M530.48,47.52V38.89A38.65,38.65,0,0,0,491.67.08H73.33A38.65,38.65,0,0,0,34.52,38.89v8.63C13,51.83,0,64.77,0,86.33V241.59C0,258.84,13,271.78,30.2,271.78h8.63V487.42c0,21.56,12.94,43.13,30.19,56.06V582.3c0,4.31,4.31,8.63,8.62,8.63H151c4.31,0,8.63-4.32,8.63-8.63V547.8H414v34.5c0,4.31,4.31,8.63,8.63,8.63H496c4.32,0,8.63-4.32,8.63-8.63V539.17c17.25-8.62,30.19-30.19,30.19-56.06V267.47h8.62c17.25,0,30.19-12.94,30.19-30.19V86.33C565,64.77,552.05,47.52,530.48,47.52Zm17.26,38.81v21.56c-4.32,0-8.63-4.31-12.94-4.31h-8.63V64.77C539.11,64.77,547.74,77.71,547.74,86.33Zm-474.41-69H491.67c12.94,0,21.56,8.62,21.56,21.56V56.14H51.77V38.89C51.77,26,60.39,17.33,73.33,17.33ZM470.11,435.67h43.12v34.5H470.11Zm-60.38,0h43.13v34.5H409.73Zm-8.63-12.94c-4.31,0-8.62,4.31-8.62,8.62v51.76c0,8.62-8.63,17.25-17.25,17.25H189.78c-8.63,0-17.26-8.63-17.26-17.25V431.35c0-4.31-4.31-8.62-8.62-8.62H51.77V383.91H513.23v38.82ZM51.77,435.67H94.89v34.5H51.77Zm60.38,0h43.12v34.5H112.15ZM396.79,73.39,284.66,366.66h-138L254.47,69.08H396.79ZM301.91,366.66,409.73,69.08h30.19L332.1,366.66ZM34.52,64.77v38.81H25.89c-4.31,0-8.63,4.31-12.94,4.31V86.33C13,77.71,21.58,64.77,34.52,64.77ZM13,241.59V133.77q0-12.93,12.94-12.94h34.5q12.94,0,12.94,12.94V241.59q0,12.94-12.94,12.94H25.89C21.58,254.53,13,250.22,13,241.59Zm47.44,30.19c17.25,0,30.19-12.94,30.19-30.19V133.77c0-17.25-12.94-30.19-30.19-30.19H51.77V73.39H241.53L129.4,366.66H51.77V267.47h8.62ZM138,573.67H82V547.8H138Zm345,0H427V547.8H483Zm-17.25-43.12H94.89c-21.56,0-43.12-17.25-43.12-43.13H159.59c4.31,12.94,17.25,25.88,30.19,25.88H375.23c17.25,0,30.18-8.63,30.18-25.88H513.23C508.92,513.3,491.67,530.55,465.79,530.55Zm47.44-163.89H349.35L457.17,69.08h56.06v34.5h-8.62c-17.25,0-30.19,12.94-30.19,30.19V241.59c0,17.25,12.94,30.19,30.19,30.19h8.62Zm34.51-125.07q0,12.94-12.94,12.94H500.3q-12.94,0-12.94-12.94V133.77q0-12.93,12.94-12.94h34.5q12.93,0,12.94,12.94Z" style="fill:#ff4338;fill-opacity:0.05000000074505806"/></g></mask></defs><title>Artboard 1</title><g style="mask:url(#mask)"><rect x="-2" width="435" height="591" style="fill:#ff4338"/></g></svg>