<svg width="651" height="61" viewBox="0 0 651 61" fill="none" xmlns="http://www.w3.org/2000/svg">
<path d="M1 36.2069L14.9729 25L29.1204 36.2069L43.2679 25L57.4155 36.2069L71.563 25L85.5358 36.2069L99.6834 25L113.831 36.2069L127.978 25L141.951 36.2069L156.099 25L170.246 36.2069L184.394 25L198.367 36.2069L212.514 25L226.662 36.2069L240.809 25L254.957 36.2069L268.93 25L283.077 36.2069L297.225 25L311.372 36.2069L325.345 25L339.493 36.2069L353.64 25L367.788 36.2069L381.761 25L395.908 36.2069L410.056 25L424.203 36.2069L438.351 25L452.324 36.2069L466.471 25L480.619 36.2069L494.766 25L508.914 36.2069L522.887 25L537.034 36.2069L551.182 25L565.329 36.2069L579.477 25L593.45 36.2069L607.597 25L621.745 36.2069L635.892 25L650.04 36.2069" stroke="#E94538" stroke-width="2" stroke-miterlimit="10"/>
<path d="M1 13.2069L14.9729 2L29.1204 13.2069L43.2679 2L57.4155 13.2069L71.563 2L85.5358 13.2069L99.6834 2L113.831 13.2069L127.978 2L141.951 13.2069L156.099 2L170.246 13.2069L184.394 2L198.367 13.2069L212.514 2L226.662 13.2069L240.809 2L254.957 13.2069L268.93 2L283.077 13.2069L297.225 2L311.372 13.2069L325.345 2L339.493 13.2069L353.64 2L367.788 13.2069L381.761 2L395.908 13.2069L410.056 2L424.203 13.2069L438.351 2L452.324 13.2069L466.471 2L480.619 13.2069L494.766 2L508.914 13.2069L522.887 2L537.034 13.2069L551.182 2L565.329 13.2069L579.477 2L593.45 13.2069L607.597 2L621.745 13.2069L635.892 2L650.04 13.2069" stroke="#E94538" stroke-width="2" stroke-miterlimit="10"/>
<path d="M1 59.2069L14.9729 48L29.1204 59.2069L43.2679 48L57.4155 59.2069L71.563 48L85.5358 59.2069L99.6834 48L113.831 59.2069L127.978 48L141.951 59.2069L156.099 48L170.246 59.2069L184.394 48L198.367 59.2069L212.514 48L226.662 59.2069L240.809 48L254.957 59.2069L268.93 48L283.077 59.2069L297.225 48L311.372 59.2069L325.345 48L339.493 59.2069L353.64 48L367.788 59.2069L381.761 48L395.908 59.2069L410.056 48L424.203 59.2069L438.351 48L452.324 59.2069L466.471 48L480.619 59.2069L494.766 48L508.914 59.2069L522.887 48L537.034 59.2069L551.182 48L565.329 59.2069L579.477 48L593.45 59.2069L607.597 48L621.745 59.2069L635.892 48L650.04 59.2069" stroke="#E94538" stroke-width="2" stroke-miterlimit="10"/>
</svg>
